# xmcd CD database file
#
# Track frame offsets:
#	150
#	15243
#	27943
#
# Disc length: 541 seconds
#
# Revision: 6
# Processed by: cddbd v1.5PL3 Copyright (c) Steve Scherf et al.
# Submitted via: CDex 1.50Beta5
#
DISCID=13021b03
DTITLE=ゆず - 夏色
DYEAR=1900
DGENRE=J-pop
TTITLE0=夏色
TTITLE1=大バカ者
TTITLE2=贈る詩
EXTD=
EXTT0=
EXTT1=
EXTT2=
PLAYORDER=
